<svg width="46" height="52" viewBox="0 0 46 52" fill="none" xmlns="http://www.w3.org/2000/svg">
<path d="M15.803 17.2338C15.1711 16.5993 14.4599 16.0353 13.6897 15.5566C13.1898 15.2449 12.5993 15.1529 12.0252 15.2968C11.4492 15.4414 10.9683 15.8052 10.6708 16.3219C10.4841 16.6504 10.3853 17.0194 10.3853 17.3889C10.3853 18.1464 10.7737 18.8424 11.425 19.2502C13.6002 20.6083 14.8986 22.9457 14.8986 25.5023C14.8986 28.0578 13.5995 30.3948 11.4235 31.7532C10.4199 32.3825 10.0904 33.6697 10.673 34.6849C11.0604 35.3544 11.7817 35.7704 12.5553 35.7704C12.9557 35.7704 13.3471 35.6593 13.6859 35.4487C17.1548 33.2984 19.2252 29.5799 19.2252 25.5023C19.226 22.3772 18.0103 19.4411 15.803 17.2338Z" fill="#101115"/>
<path d="M9.01178 28.5118C7.34839 28.5118 6 27.1634 6 25.5001C6 23.8367 7.34839 22.4883 9.01178 22.4883C10.6752 22.4883 12.0236 23.8367 12.0236 25.5001C12.0236 27.1634 10.6752 28.5118 9.01178 28.5118Z" fill="#101115"/>
<path d="M27.6368 25.5027C27.6368 32.7374 23.8242 39.0775 18.0993 42.6268C17.6881 42.8815 17.234 43 16.7848 43C15.9069 43 15.0502 42.5418 14.5798 41.7277C13.8927 40.5318 14.3043 39.0264 15.4745 38.2928C19.7407 35.6296 22.5821 30.8925 22.5821 25.5027C22.5821 20.1129 19.7407 15.3717 15.4745 12.7085C14.6901 12.2164 14.2446 11.3769 14.2446 10.5161C14.2446 10.0964 14.355 9.66803 14.5798 9.27362C15.2922 8.0352 16.8911 7.62402 18.1038 8.37892C19.4268 9.20167 20.6481 10.1687 21.7422 11.2669C25.3847 14.9095 27.6368 19.9433 27.6368 25.5027Z" fill="url(#paint0_linear_47013_870)"/>
<path d="M18.9476 6.48511H5.15425C4.6157 6.48511 4.08146 6.50759 3.55295 6.55159C2.28644 6.65634 1.06919 6.04413 0.435463 4.94216C-0.746387 2.88743 0.602867 0.2908 2.96513 0.091832C3.68735 0.0310894 4.41721 0 5.15474 0H18.8534C33.1628 0 45.2439 11.7066 45.1444 26.016C45.0956 33.0765 42.2106 39.4645 37.5769 44.0982C32.9031 48.772 26.4448 51.6609 19.3121 51.6609H5.15474C4.41721 51.6609 3.68687 51.6298 2.96513 51.569C0.602867 51.3696 -0.745907 48.7734 0.435463 46.7187C1.06919 45.6167 2.28644 45.0045 3.55295 45.1093C4.08146 45.1533 4.61618 45.1758 5.15474 45.1758H19.3121C30.1386 45.1758 38.9152 36.2399 38.654 25.3612C38.4005 14.8002 29.5106 6.48511 18.9476 6.48511Z" fill="url(#paint1_linear_47013_870)"/>
<defs>
<linearGradient id="paint0_linear_47013_870" x1="28.1049" y1="43.6034" x2="16.2467" y2="44.3914" gradientUnits="userSpaceOnUse">
<stop stop-color="#101115"/>
<stop offset="0.991615" stop-color="#101115"/>
</linearGradient>
<linearGradient id="paint1_linear_47013_870" x1="35.823" y1="40.678" x2="13.1974" y2="2.57573" gradientUnits="userSpaceOnUse">
<stop stop-color="#101115"/>
<stop offset="1" stop-color="#101115" stop-opacity="0.619608"/>
</linearGradient>
</defs>
</svg>
