<svg width="24" height="25" viewBox="0 0 24 25" fill="none" xmlns="http://www.w3.org/2000/svg">
<path d="M10.3198 19.4696C10.4598 19.5796 10.5998 19.6796 10.7498 19.7896C11.8898 20.6196 13.0398 21.2796 14.1898 21.7696C15.3398 22.2596 16.4298 22.4996 17.4498 22.4996C18.1498 22.4996 18.7998 22.3696 19.3998 22.1196C20.0098 21.8696 20.5498 21.4796 21.0398 20.9396C21.3298 20.6196 21.5498 20.2796 21.7198 19.9196C21.8898 19.5596 21.9698 19.1896 21.9698 18.8296C21.9698 18.5496 21.9098 18.2996 21.8098 18.0496C21.6998 17.7996 21.5198 17.5896 21.2598 17.4096L17.9498 15.0596C17.6998 14.8896 17.4698 14.7596 17.2498 14.6696C17.0298 14.5796 16.8298 14.5396 16.6398 14.5396C16.3898 14.5396 16.1598 14.6096 15.9298 14.7496C15.6998 14.8696 15.4598 15.0596 15.2098 15.3096L14.4498 16.0596C14.3398 16.1696 14.2098 16.2296 14.0398 16.2296C13.9498 16.2296 13.8698 16.2196 13.7898 16.1896C13.7198 16.1596 13.6598 16.1296 13.6098 16.1096C13.4198 16.0096 13.1998 15.8696 12.9598 15.6896" stroke="white" stroke-width="2.5" stroke-miterlimit="10" stroke-linecap="round" stroke-linejoin="round"/>
<path d="M10.73 13.72C10.21 13.19 9.73 12.66 9.28 12.14C8.84 11.62 8.53 11.19 8.35 10.86C8.33 10.8 8.3 10.74 8.27 10.66C8.25 10.58 8.24 10.51 8.24 10.43C8.24 10.27 8.29 10.14 8.4 10.03L9.16 9.24C9.4 9 9.59 8.76 9.72 8.53C9.86 8.3 9.93 8.06 9.93 7.82C9.93 7.63 9.88 7.42 9.79 7.21C9.7 6.99 9.57 6.76 9.39 6.51L7.07 3.24C6.89 2.98 6.66 2.8 6.4 2.68C6.15 2.56 5.87 2.5 5.59 2.5C4.85 2.5 4.15 2.81 3.51 3.44C2.98 3.94 2.6 4.5 2.36 5.11C2.12 5.71 2 6.36 2 7.04C2 8.08 2.24 9.17 2.72 10.31C3.2 11.44 3.86 12.58 4.68 13.72C5.51 14.86 6.44 15.95 7.47 16.99" stroke="white" stroke-width="2.5" stroke-miterlimit="10" stroke-linecap="round" stroke-linejoin="round"/>
<path opacity="0.8" d="M22 2.5L2 22.5" stroke="white" stroke-width="2.5" stroke-linecap="round" stroke-linejoin="round"/>
</svg>
