<svg width="26" height="29" viewBox="0 0 26 29" fill="none" xmlns="http://www.w3.org/2000/svg">
<mask id="path-1-inside-1_47005_152" fill="white">
<path d="M2.9685 3.64044H10.9124C16.9958 3.64044 22.1157 8.30812 22.2617 14.2366C22.4121 20.3434 17.3575 25.3596 11.1223 25.3596H2.96878C2.65862 25.3596 2.35066 25.3469 2.04628 25.3222C1.31687 25.2634 0.615833 25.6071 0.250854 26.2257C-0.429522 27.3791 0.347263 28.8365 1.70774 28.9484C2.1234 28.9825 2.54403 29 2.96878 29H11.1223C15.2301 29 18.9496 27.3783 21.6414 24.7547C24.31 22.1535 25.9716 18.5676 25.9996 14.6042C26.0569 6.57153 19.0992 0 10.8581 0H2.96878C2.54403 0 2.12368 0.0174521 1.70774 0.0515502C0.347263 0.163241 -0.429798 1.62087 0.250854 2.7743C0.615833 3.39289 1.31687 3.73656 2.04628 3.67776C2.35066 3.65306 2.65834 3.64044 2.9685 3.64044Z"/>
</mask>
<path d="M2.9685 3.64044H10.9124C16.9958 3.64044 22.1157 8.30812 22.2617 14.2366C22.4121 20.3434 17.3575 25.3596 11.1223 25.3596H2.96878C2.65862 25.3596 2.35066 25.3469 2.04628 25.3222C1.31687 25.2634 0.615833 25.6071 0.250854 26.2257C-0.429522 27.3791 0.347263 28.8365 1.70774 28.9484C2.1234 28.9825 2.54403 29 2.96878 29H11.1223C15.2301 29 18.9496 27.3783 21.6414 24.7547C24.31 22.1535 25.9716 18.5676 25.9996 14.6042C26.0569 6.57153 19.0992 0 10.8581 0H2.96878C2.54403 0 2.12368 0.0174521 1.70774 0.0515502C0.347263 0.163241 -0.429798 1.62087 0.250854 2.7743C0.615833 3.39289 1.31687 3.73656 2.04628 3.67776C2.35066 3.65306 2.65834 3.64044 2.9685 3.64044Z" fill="url(#paint0_linear_47005_152)"/>
<path d="M2.9685 3.73831C2.9685 3.67306 2.9685 3.60782 2.9685 3.54257C5.12136 3.54772 7.27422 3.55266 9.42708 3.55741C9.92218 3.5585 10.4173 3.55958 10.9124 3.56064C16.7148 3.4437 22.2857 8.33707 22.3087 14.2355C22.5849 20.2442 17.0536 25.5424 11.1223 25.382C8.40444 25.3789 5.68661 25.3761 2.96878 25.3736C2.66056 25.3733 2.35237 25.3606 2.04521 25.3354C1.34604 25.2715 0.615196 25.619 0.260712 26.2315C-0.443075 27.3091 0.435791 28.8978 1.70845 28.9398C2.12759 28.9745 2.54817 28.992 2.96878 28.9922C5.68661 28.9941 8.40444 28.9956 11.1223 28.9968C15.0016 29.0162 18.8693 27.4741 21.6413 24.7545C22.4169 23.9987 23.1093 23.1573 23.6994 22.2492C25.1746 19.9896 25.986 17.3031 25.9968 14.6042C26.1814 6.62204 18.6752 -0.14121 10.8581 0.0431985C8.22833 0.0504246 5.59856 0.0585573 2.96878 0.0675965C2.5498 0.069036 2.13095 0.0875983 1.71362 0.123315C1.6252 0.130908 1.53847 0.144422 1.45289 0.164072C0.346378 0.375142 -0.292526 1.78565 0.324657 2.73074C0.666044 3.31641 1.36791 3.64756 2.03872 3.58397C2.34784 3.55763 2.65812 3.54384 2.9685 3.54257C2.9685 3.60782 2.9685 3.67306 2.9685 3.73831C2.66339 3.73704 2.35818 3.7481 2.05389 3.77154C1.31696 3.8354 0.548229 3.46577 0.177048 2.81784C-0.492725 1.77053 0.22295 0.239782 1.42074 0.0216945C1.51326 0.00114535 1.6068 -0.012727 1.70185 -0.0202139C2.12335 -0.0532769 2.54613 -0.0690502 2.96878 -0.0675965C5.59856 -0.0585573 8.22833 -0.0504246 10.8581 -0.0431985C18.7198 -0.181079 26.1976 6.62221 26.0025 14.6042C25.9878 17.3042 25.1746 19.9896 23.6994 22.2492C23.1093 23.1573 22.417 23.9988 21.6415 24.7548C18.8699 27.4748 15.0033 29.0192 11.1223 29.0032C8.40444 29.0044 5.68661 29.0059 2.96878 29.0078C2.54775 29.008 2.1267 28.9912 1.70704 28.957C0.423004 28.9168 -0.469776 27.313 0.240997 26.2199C0.599079 25.5988 1.33882 25.2455 2.04734 25.309C2.35384 25.3336 2.66132 25.3458 2.96878 25.3455C5.68661 25.343 8.40444 25.3402 11.1223 25.3371C17.0324 25.483 22.5104 20.1913 22.2147 14.2378C22.1724 8.39312 16.6358 3.57867 10.9124 3.72023C10.4173 3.7213 9.92218 3.72238 9.42708 3.72347C7.27422 3.72822 5.12136 3.73316 2.9685 3.73831Z" fill="black" mask="url(#path-1-inside-1_47005_152)"/>
<path d="M8.06436 10.0729C7.70696 9.73306 7.30464 9.431 6.86902 9.17465C6.58626 9.00775 6.25227 8.95843 5.92755 9.0355C5.60178 9.11296 5.32978 9.30781 5.16152 9.58452C5.05588 9.76041 5 9.95806 5 10.1559C5 10.5616 5.21971 10.9343 5.58807 11.1527C6.81841 11.88 7.55282 13.1318 7.55282 14.501C7.55282 15.8695 6.81799 17.1211 5.58723 17.8486C5.01961 18.1856 4.83321 18.875 5.16278 19.4186C5.38186 19.7772 5.78986 20 6.22739 20C6.45385 20 6.67524 19.9405 6.86691 19.8277C8.82891 18.6762 10 16.6847 10 14.501C10.0004 12.8274 9.31283 11.255 8.06436 10.0729Z" fill="#F8EDB7" fill-opacity="0.88"/>
<path d="M4.5 16C3.67156 16 3 15.3284 3 14.5C3 13.6716 3.67156 13 4.5 13C5.32844 13 6 13.6716 6 14.5C6 15.3284 5.32844 16 4.5 16Z" fill="#FEDDFB"/>
<path d="M15 14.5015C15 18.4289 12.7225 21.8706 9.30264 23.7974C9.05701 23.9356 8.78578 24 8.51743 24C7.99299 24 7.48124 23.7513 7.2002 23.3093C6.78978 22.6601 7.03563 21.8429 7.73466 21.4446C10.2832 19.9989 11.9805 17.4274 11.9805 14.5015C11.9805 11.5756 10.2832 9.0018 7.73466 7.55605C7.26612 7.28892 7 6.83318 7 6.3659C7 6.13803 7.06592 5.9055 7.2002 5.69139C7.62577 5.01911 8.5809 4.7959 9.30532 5.2057C10.0956 5.65233 10.8252 6.17729 11.4788 6.77348C13.6547 8.75085 15 11.4835 15 14.5015Z" fill="url(#paint1_linear_47005_152)"/>
<defs>
<linearGradient id="paint0_linear_47005_152" x1="2" y1="4" x2="8.87721" y2="45.6803" gradientUnits="userSpaceOnUse">
<stop stop-color="#F8EDB7"/>
<stop offset="1" stop-color="#FFB5F9"/>
</linearGradient>
<linearGradient id="paint1_linear_47005_152" x1="15.2797" y1="24.3276" x2="8.20251" y2="24.8451" gradientUnits="userSpaceOnUse">
<stop offset="0.139423" stop-color="#F8EDB7"/>
<stop offset="0.850962" stop-color="#FFB5F9"/>
</linearGradient>
</defs>
</svg>
